<?xml version="1.0" encoding="UTF-8" standalone="no"?><!DOCTYPE svg PUBLIC "-//W3C//DTD SVG 1.1//EN" "http://www.w3.org/Graphics/SVG/1.1/DTD/svg11.dtd"><svg width="100%" height="100%" viewBox="0 0 40 60" version="1.1" xmlns="http://www.w3.org/2000/svg" xmlns:xlink="http://www.w3.org/1999/xlink" xml:space="preserve" xmlns:serif="http://www.serif.com/" style="fill-rule:evenodd;clip-rule:evenodd;stroke-linejoin:round;stroke-miterlimit:2;"><path d="M0,51.857l0,-4.474l11.859,0l0,-23.796l11.971,0l0,4.234l-7.883,0l0,19.563l23.916,0l0,4.474l-39.862,0Zm39.862,3.796l0,4.264l-39.862,0l-0,-4.264l39.862,0Zm-39.862,-43.745l0,-3.848l39.862,0l0,27.644l-12.236,0l0,-4.088l8.029,0l0,-19.709l-35.655,0Zm39.862,27.592l0,4.088l-20.12,0l0,-11.971l4.088,0l0,7.883l16.032,0Zm-39.862,4.088l0,-4.088l3.589,0l0,-23.796l28.27,0l0,12.117l-4.234,-0l0,-8.029l-19.563,0l0,23.796l-8.063,0Zm0,-39.323l0,-4.264l39.862,0l0,4.264l-39.862,0Z" style="fill:#4c5a43;"/></svg>